<svg id="visual" viewBox="0 0 960 540" width="960" height="540" xmlns="http://www.w3.org/2000/svg" xmlns:xlink="http://www.w3.org/1999/xlink" version="1.1"><rect x="0" y="0" width="960" height="540" fill="#140021"></rect><path d="M856 540L763 540L763 512L776 512L776 483L754 483L754 455L770 455L770 426L774 426L774 398L824 398L824 369L786 369L786 341L815 341L815 313L849 313L849 284L746 284L746 256L762 256L762 227L825 227L825 199L817 199L817 171L844 171L844 142L862 142L862 114L750 114L750 85L842 85L842 57L769 57L769 28L777 28L777 0L960 0L960 28L960 28L960 57L960 57L960 85L960 85L960 114L960 114L960 142L960 142L960 171L960 171L960 199L960 199L960 227L960 227L960 256L960 256L960 284L960 284L960 313L960 313L960 341L960 341L960 369L960 369L960 398L960 398L960 426L960 426L960 455L960 455L960 483L960 483L960 512L960 512L960 540L960 540Z" fill="#9900ff"></path><path d="M802 540L889 540L889 512L840 512L840 483L874 483L874 455L838 455L838 426L826 426L826 398L836 398L836 369L811 369L811 341L866 341L866 313L893 313L893 284L822 284L822 256L890 256L890 227L851 227L851 199L851 199L851 171L904 171L904 142L852 142L852 114L874 114L874 85L851 85L851 57L870 57L870 28L869 28L869 0L960 0L960 28L960 28L960 57L960 57L960 85L960 85L960 114L960 114L960 142L960 142L960 171L960 171L960 199L960 199L960 227L960 227L960 256L960 256L960 284L960 284L960 313L960 313L960 341L960 341L960 369L960 369L960 398L960 398L960 426L960 426L960 455L960 455L960 483L960 483L960 512L960 512L960 540L960 540Z" fill="#7700c6"></path><path d="M912 540L857 540L857 512L913 512L913 483L920 483L920 455L861 455L861 426L906 426L906 398L911 398L911 369L924 369L924 341L876 341L876 313L893 313L893 284L916 284L916 256L910 256L910 227L888 227L888 199L888 199L888 171L917 171L917 142L919 142L919 114L920 114L920 85L870 85L870 57L871 57L871 28L876 28L876 0L960 0L960 28L960 28L960 57L960 57L960 85L960 85L960 114L960 114L960 142L960 142L960 171L960 171L960 199L960 199L960 227L960 227L960 256L960 256L960 284L960 284L960 313L960 313L960 341L960 341L960 369L960 369L960 398L960 398L960 426L960 426L960 455L960 455L960 483L960 483L960 512L960 512L960 540L960 540Z" fill="#560090"></path></svg>